<svg xmlns="http://www.w3.org/2000/svg" width="1010" height="211.861" viewBox="0 0 1010 211.861"><g transform="translate(-825 -683.251)"><g transform="translate(1010.157 724.949)"><path d="M100.406,145.552a29.263,29.263,0,0,1-12.045-2.365,19.056,19.056,0,0,1-8.348-7.038,20.834,20.834,0,0,1-3.057-11.657,20.561,20.561,0,0,1,2.161-9.884A17.478,17.478,0,0,1,85,108.169a28.534,28.534,0,0,1,8.485-3.678,64.09,64.09,0,0,1,10-1.747q6.161-.644,9.936-1.217a13.908,13.908,0,0,0,5.469-1.724,3.839,3.839,0,0,0,1.7-3.4v-.274a8.513,8.513,0,0,0-2.735-6.761q-2.737-2.392-7.749-2.391a13.808,13.808,0,0,0-8.415,2.32,10.929,10.929,0,0,0-4.141,5.817L79.439,93.64a24.779,24.779,0,0,1,5.425-11.153,26.384,26.384,0,0,1,10.461-7.264,40.052,40.052,0,0,1,14.876-2.55,45.533,45.533,0,0,1,11.287,1.377,29.812,29.812,0,0,1,9.61,4.278,20.964,20.964,0,0,1,6.646,7.427,22.539,22.539,0,0,1,2.439,10.828v47.637H121.6v-9.8h-.551a19.647,19.647,0,0,1-4.552,5.817,20.551,20.551,0,0,1-6.85,3.908A27.885,27.885,0,0,1,100.406,145.552Zm5.61-13.518a16.29,16.29,0,0,0,7.634-1.724,13.381,13.381,0,0,0,5.2-4.666,12.109,12.109,0,0,0,1.884-6.665v-7.5a9.914,9.914,0,0,1-2.505,1.081,36.543,36.543,0,0,1-3.564.87c-1.317.266-2.635.492-3.952.692s-2.516.377-3.59.533a24.056,24.056,0,0,0-6.025,1.606,9.71,9.71,0,0,0-4,2.968,7.385,7.385,0,0,0-1.425,4.618,7.022,7.022,0,0,0,2.92,6.091A12.439,12.439,0,0,0,106.016,132.033Z" transform="translate(-76.956 -44.667)"/><path d="M95.354,170.7V73.591h19.313V85.455h.877a25.793,25.793,0,0,1,3.745-5.817,19.706,19.706,0,0,1,6.439-4.966,21.948,21.948,0,0,1,9.906-2A26.649,26.649,0,0,1,149.889,76.7a28.074,28.074,0,0,1,10.439,12.09q3.908,8.071,3.908,20.209,0,11.823-3.793,19.935a28.311,28.311,0,0,1-10.3,12.278,26.469,26.469,0,0,1-14.554,4.159,22.525,22.525,0,0,1-9.681-1.884,19.776,19.776,0,0,1-6.506-4.763,23.523,23.523,0,0,1-3.86-5.814h-.6v37.8Zm19.176-61.8a31.421,31.421,0,0,0,1.747,10.991,16.174,16.174,0,0,0,5.059,7.286,13.736,13.736,0,0,0,16.138-.044,16.29,16.29,0,0,0,5.036-7.36,31.5,31.5,0,0,0,1.724-10.872,31.242,31.242,0,0,0-1.7-10.757,16.057,16.057,0,0,0-5.014-7.268,14.047,14.047,0,0,0-16.208-.093,15.762,15.762,0,0,0-5.036,7.175A31.025,31.025,0,0,0,114.53,108.905Z" transform="translate(-26.271 -44.667)"/><path d="M114.685,170.7V73.591H134V85.455h.873a25.817,25.817,0,0,1,3.749-5.817,19.73,19.73,0,0,1,6.435-4.966,21.965,21.965,0,0,1,9.91-2A26.649,26.649,0,0,1,169.22,76.7a28.1,28.1,0,0,1,10.439,12.09q3.908,8.071,3.908,20.209,0,11.823-3.8,19.935a28.286,28.286,0,0,1-10.3,12.278,26.456,26.456,0,0,1-14.551,4.159,22.5,22.5,0,0,1-9.681-1.884,19.738,19.738,0,0,1-6.506-4.763,23.546,23.546,0,0,1-3.863-5.814h-.6v37.8Zm19.176-61.8a31.423,31.423,0,0,0,1.747,10.991,16.116,16.116,0,0,0,5.059,7.286,13.736,13.736,0,0,0,16.138-.044,16.319,16.319,0,0,0,5.036-7.36,31.59,31.59,0,0,0,1.724-10.872,31.24,31.24,0,0,0-1.7-10.757,16.052,16.052,0,0,0-5.011-7.268,14.053,14.053,0,0,0-16.212-.093,15.756,15.756,0,0,0-5.033,7.175A31.027,31.027,0,0,0,133.861,108.905Z" transform="translate(27.933 -44.667)"/><path d="M154.306,66.559v94.172H134.715V66.559Z" transform="translate(82.025 -61.178)"/><path d="M152.508,84.925a10.564,10.564,0,0,1-7.471-2.9,9.427,9.427,0,0,1,.022-14A11.021,11.021,0,0,1,159.983,68a9.454,9.454,0,0,1,0,14A10.523,10.523,0,0,1,152.508,84.925Zm-9.84,79.732V94.028h19.591v70.629Z" transform="translate(101.523 -65.105)"/><path d="M183.821,145.6q-10.9,0-18.736-4.437a30.025,30.025,0,0,1-12.071-12.6q-4.235-8.16-4.233-19.335A41.241,41.241,0,0,1,153.014,90.1a31.194,31.194,0,0,1,11.931-12.83,34.657,34.657,0,0,1,18.1-4.6A37.342,37.342,0,0,1,196.074,74.9a29.386,29.386,0,0,1,10.576,6.691,30.551,30.551,0,0,1,7.061,11.194,44.8,44.8,0,0,1,2.527,15.75v5.381H156.6V101.778h41.2a15.014,15.014,0,0,0-1.839-7.494,13.4,13.4,0,0,0-5.081-5.129,14.843,14.843,0,0,0-7.52-1.861,15.083,15.083,0,0,0-7.882,2.046,14.666,14.666,0,0,0-5.358,5.469,15.574,15.574,0,0,0-1.976,7.612v11.542a19.586,19.586,0,0,0,1.954,9.055,13.988,13.988,0,0,0,5.54,5.888,16.722,16.722,0,0,0,8.507,2.072,18.489,18.489,0,0,0,5.976-.921,12.43,12.43,0,0,0,4.644-2.757,12.015,12.015,0,0,0,2.942-4.507l18.118,1.192a24.719,24.719,0,0,1-5.632,11.383,28.28,28.28,0,0,1-10.946,7.538A41,41,0,0,1,183.821,145.6Z" transform="translate(120.011 -44.667)"/><path d="M196.3,161.878a26.459,26.459,0,0,1-14.554-4.159,28.311,28.311,0,0,1-10.3-12.278q-3.8-8.115-3.793-19.935,0-12.134,3.908-20.209a28.147,28.147,0,0,1,10.413-12.09,26.614,26.614,0,0,1,14.277-4.022,21.953,21.953,0,0,1,9.91,2,19.784,19.784,0,0,1,6.439,4.966,25.925,25.925,0,0,1,3.745,5.817h.6V66.559h19.542v94.172H217.178V149.418h-.829a24.984,24.984,0,0,1-3.885,5.814,19.452,19.452,0,0,1-6.484,4.763A22.5,22.5,0,0,1,196.3,161.878Zm6.206-15.587a12.555,12.555,0,0,0,8.026-2.6,16.4,16.4,0,0,0,5.055-7.286,31.063,31.063,0,0,0,1.773-10.991,31.112,31.112,0,0,0-1.747-10.943,15.715,15.715,0,0,0-5.059-7.175,12.867,12.867,0,0,0-8.049-2.527,12.706,12.706,0,0,0-8.138,2.62,16.029,16.029,0,0,0-5.014,7.268,35.026,35.026,0,0,0,.026,21.63,16.394,16.394,0,0,0,5.01,7.36A12.545,12.545,0,0,0,202.509,146.291Z" transform="translate(172.987 -61.178)"/><path d="M261.651,72.921l-24.69,70.629H214.887L190.193,72.921h20.694l14.669,50.535h.736l14.621-50.535Z" transform="translate(233.846 -43.998)"/><path d="M220.487,84.925a10.565,10.565,0,0,1-7.471-2.9,9.427,9.427,0,0,1,.022-14A11.021,11.021,0,0,1,227.962,68a9.454,9.454,0,0,1,0,14A10.523,10.523,0,0,1,220.487,84.925Zm-9.84,79.732V94.028h19.591v70.629Z" transform="translate(289.104 -65.105)"/><path d="M278.574,93.729l-17.933,1.106a9.446,9.446,0,0,0-1.976-4.163,10.876,10.876,0,0,0-3.978-2.99,13.981,13.981,0,0,0-5.862-1.125,14.508,14.508,0,0,0-7.679,1.906,5.755,5.755,0,0,0-3.127,5.081,5.447,5.447,0,0,0,2.024,4.282q2.021,1.743,6.942,2.8l12.782,2.572q10.3,2.12,15.361,6.805a16.018,16.018,0,0,1,5.055,12.323,19.313,19.313,0,0,1-4.067,12.186,26.633,26.633,0,0,1-11.128,8.163,42.33,42.33,0,0,1-16.257,2.92q-14.027,0-22.325-5.865a22.637,22.637,0,0,1-9.721-15.975l19.265-1.014a9.792,9.792,0,0,0,4.23,6.506,17.966,17.966,0,0,0,16.9.229,6.072,6.072,0,0,0,3.193-5.17,5.476,5.476,0,0,0-2.254-4.4,16.48,16.48,0,0,0-6.805-2.639l-12.23-2.442q-10.347-2.065-15.38-7.168a17.749,17.749,0,0,1-5.036-13.015,18.953,18.953,0,0,1,3.7-11.727,23.479,23.479,0,0,1,10.439-7.582A42.716,42.716,0,0,1,248.5,72.673q13.378,0,21.082,5.654A21.859,21.859,0,0,1,278.574,93.729Z" transform="translate(307.392 -44.667)"/><path d="M245.466,84.925a10.551,10.551,0,0,1-7.471-2.9,9.424,9.424,0,0,1,.018-14A11.022,11.022,0,0,1,252.938,68a9.454,9.454,0,0,1,0,14A10.515,10.515,0,0,1,245.466,84.925Zm-9.843,79.732V94.028h19.591v70.629Z" transform="translate(356.553 -65.105)"/><path d="M276.5,145.6q-10.713,0-18.51-4.574a30.944,30.944,0,0,1-12.023-12.789,41.034,41.034,0,0,1-4.23-19.058,41.264,41.264,0,0,1,4.23-19.15,30.949,30.949,0,0,1,12.023-12.782q7.8-4.574,18.51-4.574t18.507,4.574a30.923,30.923,0,0,1,12.023,12.782,41.216,41.216,0,0,1,4.23,19.15,40.986,40.986,0,0,1-4.23,19.058,30.919,30.919,0,0,1-12.023,12.789Q287.212,145.6,276.5,145.6Zm.093-15.176a12.111,12.111,0,0,0,8.137-2.783,17.123,17.123,0,0,0,4.944-7.608,36.789,36.789,0,0,0,0-21.981,17.326,17.326,0,0,0-4.944-7.631,12.051,12.051,0,0,0-8.137-2.8,12.394,12.394,0,0,0-8.256,2.8,17.026,17.026,0,0,0-5.011,7.631,36.792,36.792,0,0,0,0,21.981,16.83,16.83,0,0,0,5.011,7.608A12.456,12.456,0,0,0,276.592,130.424Z" transform="translate(375.04 -44.667)"/><path d="M280.766,103.388v40.832H261.179V73.591h18.669V86.05h.825a19.892,19.892,0,0,1,7.863-9.773,23.94,23.94,0,0,1,13.378-3.6,24.858,24.858,0,0,1,12.83,3.216,21.909,21.909,0,0,1,8.507,9.174,30.886,30.886,0,0,1,3.034,14.184v44.973H306.7V102.744q.045-6.483-3.312-10.139t-9.244-3.656a13.941,13.941,0,0,0-6.965,1.7,11.7,11.7,0,0,0-4.685,4.94A17.125,17.125,0,0,0,280.766,103.388Z" transform="translate(430.547 -44.667)"/><path d="M341.88,93.729l-17.933,1.106a9.448,9.448,0,0,0-1.976-4.163,10.909,10.909,0,0,0-3.978-2.99,14,14,0,0,0-5.862-1.125,14.517,14.517,0,0,0-7.679,1.906,5.762,5.762,0,0,0-3.127,5.081,5.447,5.447,0,0,0,2.024,4.282q2.021,1.743,6.942,2.8l12.782,2.572q10.3,2.12,15.357,6.805a16.021,16.021,0,0,1,5.059,12.323,19.315,19.315,0,0,1-4.071,12.186,26.634,26.634,0,0,1-11.127,8.163,42.312,42.312,0,0,1-16.253,2.92q-14.027,0-22.322-5.865a22.653,22.653,0,0,1-9.725-15.975l19.265-1.014a9.791,9.791,0,0,0,4.23,6.506,17.959,17.959,0,0,0,16.9.229,6.061,6.061,0,0,0,3.2-5.17,5.477,5.477,0,0,0-2.254-4.4,16.477,16.477,0,0,0-6.809-2.639l-12.226-2.442q-10.347-2.065-15.38-7.168a17.763,17.763,0,0,1-5.036-13.015,18.953,18.953,0,0,1,3.7-11.727,23.478,23.478,0,0,1,10.439-7.582,42.73,42.73,0,0,1,15.794-2.668q13.377,0,21.082,5.654A21.871,21.871,0,0,1,341.88,93.729Z" transform="translate(481.353 -44.667)"/></g><path d="M12153.608,4280.112l-.294-.548-.422-.719-13.773-24.034L12100,4186.5h36.161l21.164,36.708,13.773,24,.425.719,18.206,31.639-.294.548Zm-53.565-118.239,40.052-69.578,7.138-12.338,6.709-11.7,36.164-.006-17.7,30.927-7.1,12.375-7.1,12.378-21.715,37.942Z" transform="translate(-11275 -3385)"/><path d="M12100.4,4199.128l21.169-36.71h36.161l-39.12,68.313Zm21.315-61.34-21.713-37.9,18.125-31.639,40,69.536Z" transform="translate(-11188.393 -3360.921)" opacity="0.5"/></g></svg>